<svg xmlns="http://www.w3.org/2000/svg" viewBox="0 0 36 48"><defs><style>.cls-1{fill:#231815;}.cls-2{fill:#fff;}</style></defs><title>자산 2</title><g id="레이어_2" data-name="레이어 2"><g id="레이어_1-2" data-name="레이어 1"><path d="M0,4.4V43.6A4.4,4.4,0,0,0,4.4,48H36V0H4.4A4.4,4.4,0,0,0,0,4.4ZM34.6,46.45H5.8a4.4,4.4,0,0,1-4.4-4.4V6c0-4.39,2-4.4,4.4-4.4H34.6Z"/><rect class="cls-1" x="4.24" y="8.46" width="1.49" height="38.39"/><path d="M4.36,0a4.37,4.37,0,0,0,0,8.73H36V0Zm30,7.17H4.44a2.81,2.81,0,1,1,0-5.61H34.37Z"/><path d="M30.19,2.76H34.6a0,0,0,0,1,0,0v1.6a0,0,0,0,1,0,0H30.19a.8.8,0,0,1-.8-.8v0A.8.8,0,0,1,30.19,2.76Z"/><path d="M31.8,5h2.71a0,0,0,0,1,0,0v1.6a0,0,0,0,1,0,0H31.8a.8.8,0,0,1-.8-.8v0A.8.8,0,0,1,31.8,5Z"/><path d="M11.13,3.44,8.86,8.15v17a1.19,1.19,0,0,0,1.7,1.14l3-5.23,3.16,5.23a1.19,1.19,0,0,0,1.7-1.14v-17l2.26-4.71Zm6,21.24-3.65-6.25-3.46,6.25V8.15l1.71-3.44h7.11l-1.71,3.5Z"/><polygon class="cls-2" points="17.18 24.68 13.53 18.43 10.07 24.68 10.07 8.15 11.78 4.71 18.89 4.71 17.18 8.21 17.18 24.68"/></g></g></svg>