<svg xmlns="http://www.w3.org/2000/svg" viewBox="0 0 101.97 87.71"><defs><style>.cls-1{fill:#c3a9ed;}.cls-2{fill:#30394c;}.cls-3{fill:#9dead6;}</style></defs><title>자산 10</title><g id="레이어_2" data-name="레이어 2"><g id="레이어_1-2" data-name="레이어 1"><path class="cls-1" d="M48.72,35.48H7.27A7.27,7.27,0,0,0,0,42.75V70.91a7.28,7.28,0,0,0,7.27,7.28H21.63L26,86.59a2.07,2.07,0,0,0,3.65,0l4.61-8.45h14.5A7.28,7.28,0,0,0,56,70.91V42.75A7.27,7.27,0,0,0,48.72,35.48Z"/><path class="cls-2" d="M94.7,26.66H53.25A7.28,7.28,0,0,0,46,33.94V62.1a7.28,7.28,0,0,0,7.28,7.27H67.61l4.33,8.41a2.06,2.06,0,0,0,3.64,0l4.61-8.45H94.7A7.27,7.27,0,0,0,102,62.1V33.94A7.27,7.27,0,0,0,94.7,26.66Z"/><path class="cls-3" d="M73,0H31.51a7.28,7.28,0,0,0-7.28,7.27V35.44a7.28,7.28,0,0,0,7.28,7.27H45.86l4.33,8.41a2.07,2.07,0,0,0,3.65,0l4.61-8.45H73a7.28,7.28,0,0,0,7.28-7.27V7.27A7.28,7.28,0,0,0,73,0Z"/></g></g></svg>