<svg xmlns="http://www.w3.org/2000/svg" viewBox="0 0 88.4 78.19"><defs><style>.cls-1{fill:#3f3f3f;}</style></defs><title>자산 5</title><g id="레이어_2" data-name="레이어 2"><g id="레이어_1-2" data-name="레이어 1"><path class="cls-1" d="M85.86,42.8c4.48-4.45,3.1-13.47-4.66-13.47H60.79c.78-4.32,1.9-11.48,1.86-12.16C62.22,10.77,58.13,3,58,2.66,57.21,1.27,53.45-.61,49.67.19c-4.9,1.05-5.4,4.17-5.38,5,0,0,.21,8.54.24,10.82-2.34,5.14-10.41,18.64-12.86,19.68a3.72,3.72,0,0,0-1.93-.54H4a4,4,0,0,0-3.95,4V74.76a3.75,3.75,0,0,0,3.72,3.43H26.88a3.73,3.73,0,0,0,3.72-3.72V73.29a2.64,2.64,0,0,1,1.25.18,10.51,10.51,0,0,0,5.73,2.14H72.14c12.93,0,11.54-11.47,10.36-13C84.68,60.2,86,56,84.19,52.69,85.6,51.19,88.09,47.07,85.86,42.8ZM26.08,74.46H3.71V38.9H26.08Zm53.76-32-.22.88c6,1.69,2.79,8.55-1.48,9l-.21.88c5.71,1.45,3,8.52-1.49,9l-.21.88c4.66.76,3.53,8.72-3.53,8.72H37.55C35.06,71.87,32.8,69,31,69h-1.6V41.67a56.41,56.41,0,0,0,5.79-4c2.56-2.19,13.06-19.15,13.06-21.27S48,5.12,48,5.12s2.06-2.66,6.66-.72c0,0,3.86,7.25,4.26,13,0,0-1.75,11.9-2.68,15.63H80.6C86.59,33.07,85.45,41.62,79.84,42.5Z"/></g></g></svg>