<svg xmlns="http://www.w3.org/2000/svg" viewBox="0 0 120.83 181.35"><defs><style>.cls-1{fill:#182493;}.cls-2{fill:#ffe6f6;}.cls-3{fill:#fcd9f1;}.cls-4{fill:#f9d2d2;}.cls-5{fill:#f2f2f2;}.cls-6{fill:#515151;}.cls-7{fill:#1a3965;}.cls-8{fill:#2a2a91;}.cls-9{fill:none;stroke:#6b6b6b;stroke-linecap:round;stroke-linejoin:round;}</style></defs><title>자산 9</title><g id="레이어_2" data-name="레이어 2"><g id="레이어_1-2" data-name="레이어 1"><path class="cls-1" d="M42.52,108.49S64,99.9,62.5,97.68s25.9,20,31.82,20.72c1.48-.74,2.22-10.36,2.22-10.36L75.82,91.76s-5.92-7.4-15.54-5.18-21.46,8.14-21.46,8.14l-8,6.09Z"/><path class="cls-2" d="M22.54,40s5.18,1.48,5.92,4.44,4.44,25.9,3,34.78v11.1L42.52,94s0,2.22-5.92,5.18S24,101.38,15.88,114,4.78,103.6,4.78,103.6C2.27,89,.12,74.08,0,59.28c0-3.63-.38-8.06,1.37-11.34C2.69,45.54,7,40.7,10,40.7s11.1,3,11.1,3Z"/><path class="cls-3" d="M21.06,55.5s-.74-7.4-7.4-8.14S7,58.46,7,58.46v5.18s11.84,9.62,14.06,6.66S21.06,55.5,21.06,55.5Z"/><path class="cls-4" d="M18.39,70.65,18.1,81.4s17,1.48,28.12,5.92h6.66s5.18-3.7,6.66-2.22S51,90.19,51,90.19l-4.74,2s-28.12.27-34.78-2S8.25,64.62,8.25,64.62Z"/><path class="cls-4" d="M31.61,69.05S55.1,80.66,55.84,80.66s-3,6.66-3,6.66L31.42,79.18Z"/><polygon class="cls-5" points="61.76 71.04 49.18 91.02 42.45 92.08 40.25 92.43 75.82 93.24 89.42 71.04 61.76 71.04"/><path class="cls-4" d="M98.76,111l3,1.48L119.48,111s-1.48,5.18-14.8,9.62c-5.92,3.7-5.92-2.22-5.92-2.22l-3.46-2,1.24-6.94Z"/><polygon class="cls-4" points="74.59 166.66 74.34 173.16 69.16 174.63 69.16 169.17 74.59 166.66"/><path class="cls-6" d="M74.34,173.15s12.58,4.44,9.62,7.4-15.54-3.7-15.54-3.7l.74-3.7Z"/><path class="cls-6" d="M105.78,112.33s-6.23,3.7-7,6.88,1.27,3.64,1.27,3.64l6.51-2.24L120,113.17s2.29-3.22-.87-3.14S105.78,112.33,105.78,112.33Z"/><polygon class="cls-4" points="26.24 32.66 24.1 37.74 21.24 43.66 11.44 41.44 14.11 32.66 16.62 25.16 26.24 32.66"/><path class="cls-7" d="M37.42,7.4s2.83,0,1.41,5.18S31,17.76,31,17.76l-6.38,3-2.84,3V29.6s-6.76,3-8.89,1.48c-2.8-1.94-3.31-6.81-3.62-9.95-.65-6.57,4.36-9.83,9.32-12.95A22.82,22.82,0,0,0,22,6.24c1.44-1.35,1.65-3.69,2-5.51a25.87,25.87,0,0,1,1.4,4.45S31,3,31,.74,37.42,1.48,37.42,7.4Z"/><path class="cls-4" d="M35,16.43s1.64,8.73,2.38,9.47-1.48,1.48-1.48,1.48l-.74,4.44s-1.48,7.4-7.4,3.7l-2.22-.74s-5.18-4.44-5.18-6.66-.92-4.27,1.76-6.21S35,16.43,35,16.43Z"/><path class="cls-8" d="M15.88,114s27.38,18.5,39.22,16.28l11.84,39.95,9.62-4.43s-5.92-34-11.1-39.22-9.62-14.06-21.46-20-13.12-5.22-13.12-5.22S21.8,103.6,15.88,114Z"/><path class="cls-9" d="M34.38,31.82a3.29,3.29,0,0,1-3.7-1.48"/></g></g></svg>